<?xml version="1.0" standalone="no"?>
<!DOCTYPE svg PUBLIC "-//W3C//DTD SVG 20010904//EN"
 "http://www.w3.org/TR/2001/REC-SVG-20010904/DTD/svg10.dtd">
<svg version="1.0" xmlns="http://www.w3.org/2000/svg"
 width="180.000000pt" height="180.000000pt" viewBox="0 0 180.000000 180.000000"
 preserveAspectRatio="xMidYMid meet">
<metadata>
Created for Property Management System
</metadata>
<g transform="translate(0.000000,180.000000) scale(0.100000,-0.100000)"
fill="#000000" stroke="none">
<path d="M780 1355 c-131 -29 -250 -117 -307 -228 -89 -172 -61 -365 73 -499
158 -159 394 -180 574 -51 116 83 173 187 180 330 7 131 -36 243 -129 336 -94
93 -253 140 -391 112z m185 -80 c142 -36 245 -150 270 -298 19 -106 -3 -204
-65 -292 -48 -69 -153 -135 -234 -147 -96 -15 -215 19 -290 84 -80 69 -126
166 -126 270 0 104 23 167 89 244 50 57 140 115 202 129 60 14 94 17 154 10z"/>
<path d="M762 1166 c-46 -16 -121 -83 -143 -129 -23 -48 -24 -143 -2 -193 41
-92 138 -154 236 -151 182 7 293 202 205 362 -61 111 -180 155 -296 111z"/>
</g>
</svg>